<?xml version="1.0" standalone="no"?>
<!DOCTYPE svg PUBLIC "-//W3C//DTD SVG 20010904//EN"
 "http://www.w3.org/TR/2001/REC-SVG-20010904/DTD/svg10.dtd">
<svg version="1.0" xmlns="http://www.w3.org/2000/svg"
 width="507.000000pt" height="512.000000pt" viewBox="0 0 507.000000 512.000000"
 preserveAspectRatio="xMidYMid meet">

<g transform="translate(0.000000,512.000000) scale(0.100000,-0.100000)"
fill="#000000" stroke="none">
<path d="M0 2560 l0 -2560 2535 0 2535 0 0 2560 0 2560 -2535 0 -2535 0 0
-2560z m2748 1764 c392 -100 723 -440 877 -899 67 -200 80 -293 80 -555 0
-267 -13 -353 -87 -575 -146 -442 -476 -777 -873 -885 -102 -29 -304 -38 -414
-20 -86 15 -218 58 -304 101 -233 115 -466 363 -592 632 -221 471 -213 1070
21 1527 73 145 159 263 269 375 175 176 402 292 635 325 103 14 277 3 388 -26z
m-1770 -1468 c7 -4 12 -2 12 4 0 16 92 8 98 -7 2 -8 -5 -13 -17 -13 -20 0 -21
-6 -21 -80 0 -64 -3 -80 -15 -80 -12 0 -15 16 -15 80 0 63 -3 80 -14 80 -8 0
-16 -9 -18 -20 -4 -29 -22 -30 -26 -2 -2 14 -10 22 -23 22 -16 0 -20 -6 -17
-27 2 -21 10 -29 36 -35 29 -8 32 -12 32 -49 0 -33 -4 -41 -26 -49 -14 -6 -30
-7 -36 -4 -6 4 -37 6 -69 5 l-59 -2 0 89 c0 49 3 92 6 95 9 9 156 3 172 -7z
m3002 -11 c11 -13 14 -13 27 0 15 16 41 19 67 9 13 -5 16 -22 16 -85 0 -73 -2
-80 -22 -88 -49 -18 -81 23 -71 89 3 23 3 23 -23 -3 -15 -15 -31 -27 -35 -27
-5 0 -9 -9 -9 -20 0 -16 7 -20 30 -20 17 0 30 -4 30 -10 0 -5 -20 -10 -45 -10
-43 0 -45 1 -45 29 0 20 9 37 30 54 32 28 42 77 15 77 -9 0 -15 -9 -15 -25 0
-16 -6 -25 -15 -25 -19 0 -21 56 -2 63 24 10 55 7 67 -8z m210 -5 c15 -27 2
-68 -26 -87 -32 -21 -32 -53 0 -53 14 0 28 -4 31 -10 4 -6 -12 -10 -39 -10
-46 0 -46 0 -46 34 0 27 7 39 30 56 20 14 29 28 26 43 -3 22 -25 37 -27 18 -1
-6 -2 -16 -3 -23 0 -6 -7 -13 -13 -15 -14 -5 -19 48 -6 60 14 15 63 7 73 -13z
m105 5 c0 -5 -12 -11 -27 -13 -37 -4 -40 -42 -4 -42 26 0 36 -17 36 -58 0 -35
-11 -51 -35 -53 -46 -5 -55 1 -55 31 0 34 15 40 23 10 3 -11 12 -20 21 -20 12
0 16 10 16 36 0 34 -1 35 -30 29 l-30 -7 0 52 0 51 43 -3 c23 -2 42 -7 42 -13z
m-1981 -1731 c22 -8 20 -34 -2 -34 -23 0 -42 -19 -42 -42 0 -13 8 -18 31 -18
24 0 30 -4 27 -17 -2 -11 -14 -19 -31 -21 -27 -3 -27 -4 -27 -83 0 -78 -1 -80
-22 -77 -22 3 -23 7 -21 80 3 73 2 77 -19 80 -31 4 -36 36 -6 40 16 2 24 11
26 28 6 36 20 51 69 69 1 1 8 -2 17 -5z m456 -150 l0 -146 -27 3 c-16 1 -38
-1 -51 -5 -33 -11 -87 10 -103 41 -22 41 -16 109 12 139 21 23 30 25 76 22
l53 -5 -4 49 c-4 45 -3 48 20 48 l24 0 0 -146z m-850 111 c27 -25 27 -75 0
-75 -13 0 -20 7 -20 19 0 27 -24 43 -62 39 -28 -2 -34 -7 -36 -31 -3 -25 2
-30 61 -56 66 -30 77 -43 77 -90 0 -42 -32 -64 -90 -65 -55 -1 -84 19 -95 67
-6 24 -5 27 19 27 19 0 26 -5 26 -19 0 -42 71 -56 94 -18 17 26 -2 47 -63 70
-42 16 -56 28 -67 52 -17 41 -8 72 25 91 33 18 105 12 131 -11z m210 -68 c23
-12 25 -19 30 -100 l5 -87 -35 -1 c-111 -3 -120 -3 -139 16 -47 42 -16 89 69
105 64 12 71 17 46 36 -27 19 -52 18 -76 -6 -25 -25 -50 -26 -50 -1 0 43 93
67 150 38z m384 -13 c18 -18 26 -37 26 -60 l0 -34 -80 0 c-44 0 -80 -3 -80 -7
0 -3 7 -15 17 -25 22 -24 64 -23 97 3 18 14 31 18 37 12 29 -29 -49 -79 -107
-68 -19 3 -46 16 -60 28 -21 18 -26 32 -26 71 -1 43 3 53 31 78 43 39 107 40
145 2z m470 0 c18 -18 26 -37 26 -60 l0 -34 -80 0 c-44 0 -80 -3 -80 -7 0 -3
7 -15 17 -25 22 -24 64 -23 97 3 33 26 55 13 34 -20 -20 -32 -72 -46 -119 -32
-49 15 -74 51 -73 105 3 86 117 131 178 70z m225 8 c16 -14 21 -32 24 -99 4
-81 3 -83 -20 -83 -22 0 -23 3 -23 68 0 37 -4 72 -8 78 -14 21 -41 23 -64 4
-20 -16 -23 -27 -23 -84 0 -62 -1 -66 -22 -66 -22 0 -23 3 -23 98 l0 98 70 2
c52 1 74 -3 89 -16z"/>
<path d="M2295 4290 c-205 -46 -390 -151 -540 -304 -119 -121 -187 -218 -265
-375 -329 -662 -164 -1532 370 -1956 141 -111 306 -188 461 -214 91 -15 273
-14 361 3 597 115 1037 814 977 1553 -32 395 -172 725 -413 971 -224 229 -480
343 -764 341 -64 0 -139 -8 -187 -19z m419 -180 c395 -107 702 -482 792 -965
28 -148 26 -452 -4 -590 -71 -331 -236 -608 -468 -787 -264 -203 -626 -238
-922 -89 -305 154 -527 470 -614 874 -30 140 -32 443 -4 592 110 591 540 1006
1026 990 76 -2 142 -11 194 -25z"/>
<path d="M2388 4090 c-420 -66 -749 -433 -855 -950 -27 -130 -24 -451 5 -580
88 -398 311 -709 609 -851 137 -66 222 -82 383 -76 150 5 199 17 326 78 296
141 519 452 606 849 29 130 32 451 5 582 -85 411 -301 718 -617 874 -131 64
-325 95 -462 74z m190 -759 c93 -14 147 -44 180 -99 25 -44 27 -54 27 -167 l0
-120 -80 0 -80 0 -3 101 c-4 132 -10 139 -129 139 -113 0 -123 -11 -123 -134
1 -122 4 -125 160 -157 217 -44 262 -90 268 -275 9 -243 -65 -321 -303 -321
-149 0 -229 33 -270 111 -21 42 -38 166 -30 227 l6 54 85 0 84 0 0 -103 c0
-130 6 -138 112 -144 60 -4 79 -1 104 16 27 17 32 26 36 68 5 71 -6 151 -24
169 -9 9 -73 29 -142 45 -70 15 -143 38 -164 49 -77 43 -108 131 -100 285 9
174 61 232 228 258 46 8 95 7 158 -2z"/>
<path d="M830 2810 c0 -25 4 -30 25 -30 14 0 25 -4 25 -10 0 -5 -11 -10 -25
-10 -21 0 -25 -5 -25 -30 0 -27 3 -30 30 -30 25 0 30 4 30 25 0 16 6 25 15 25
9 0 15 -9 15 -25 0 -19 5 -25 21 -25 16 0 20 5 17 27 -2 21 -10 29 -35 35 -29
8 -33 13 -33 43 0 32 -2 35 -30 35 -27 0 -30 -3 -30 -30z"/>
<path d="M4027 2828 c-2 -7 -4 -38 -3 -68 1 -44 5 -55 19 -58 15 -3 17 5 17
67 0 54 -3 71 -14 71 -8 0 -16 -6 -19 -12z"/>
<path d="M2642 974 c-16 -11 -22 -25 -22 -54 0 -46 22 -72 59 -68 54 6 66 103
15 127 -31 14 -25 14 -52 -5z"/>
<path d="M2037 903 c-12 -3 -17 -12 -15 -26 6 -45 98 -27 98 19 0 14 -42 18
-83 7z"/>
<path d="M2399 971 c-32 -26 -22 -33 47 -29 l59 3 -22 23 c-28 27 -53 28 -84
3z"/>
<path d="M2881 977 c-47 -24 -37 -37 29 -37 58 0 60 1 50 20 -6 11 -15 20 -20
20 -4 0 -14 2 -22 5 -7 3 -24 -1 -37 -8z"/>
</g>
</svg>
